<svg width="19" height="21" viewBox="0 0 19 21" fill="none" xmlns="http://www.w3.org/2000/svg">
<path d="M14.9286 7.875C17.1772 7.875 19 6.11212 19 3.9375C19 1.76288 17.1772 0 14.9286 0C12.68 0 10.8571 1.76288 10.8571 3.9375C10.8571 4.23111 10.8904 4.51722 10.9534 4.7925L6.60739 7.4194C5.91171 6.88305 5.03028 6.5625 4.07143 6.5625C1.82284 6.5625 0 8.32538 0 10.5C0 12.6746 1.82284 14.4375 4.07143 14.4375C5.03028 14.4375 5.91171 14.1169 6.60739 13.5806L10.9534 16.2075C10.8904 16.4828 10.8571 16.7689 10.8571 17.0625C10.8571 19.2371 12.68 21 14.9286 21C17.1772 21 19 19.2371 19 17.0625C19 14.8879 17.1772 13.125 14.9286 13.125C13.9697 13.125 13.0883 13.4456 12.3926 13.9819L8.04661 11.355C8.10963 11.0797 8.14286 10.7936 8.14286 10.5C8.14286 10.2064 8.10963 9.92028 8.04661 9.645L12.3926 7.0181C13.0883 7.55445 13.9697 7.875 14.9286 7.875Z" fill="#41AEDD"/>
</svg>
