<svg width="36" height="37" viewBox="0 0 36 37" fill="none" xmlns="http://www.w3.org/2000/svg">
<path d="M18 0C19.8807 0 21.2594 2.97781 22.9563 3.51905C24.715 4.08012 27.6089 2.48637 29.0729 3.53281C30.5517 4.58978 29.8972 7.79226 30.973 9.24433C32.0384 10.6822 35.3477 11.0547 35.919 12.782C36.4696 14.4486 34.0333 16.6528 34.0333 18.5C34.0333 20.3472 36.4696 22.5514 35.9186 24.218C35.3477 25.9453 32.0384 26.3178 30.9726 27.7557C29.8964 29.2077 30.5513 32.411 29.0725 33.4672C27.6084 34.5136 24.7146 32.9199 22.9559 33.481C21.2594 34.0222 19.8807 37 18 37C16.1193 37 14.7406 34.0222 13.0437 33.481C11.285 32.9199 8.39114 34.5136 6.92713 33.4672C5.44827 32.4102 6.10279 29.2077 5.02704 27.7557C3.96158 26.3178 0.652292 25.9453 0.0810279 24.218C-0.469628 22.5514 1.96669 20.3472 1.96669 18.5C1.96669 16.6528 -0.469627 14.4486 0.0814405 12.782C0.652292 11.0547 3.96158 10.6822 5.02745 9.24433C6.10362 7.79226 5.44868 4.58897 6.92754 3.53281C8.39156 2.48637 11.2854 4.08012 13.0441 3.51905C14.7406 2.97781 16.1193 0 18 0Z" fill="url(#paint0_linear_1_30281)"/>
<path fill-rule="evenodd" clip-rule="evenodd" d="M27.8182 14.1026L15.871 26.6744L9 19.4443L12.5894 15.6672L15.871 19.1202L24.2287 10.3256L27.8182 14.1026Z" fill="#F7F0EA"/>
<defs>
<linearGradient id="paint0_linear_1_30281" x1="0" y1="18.5" x2="36" y2="18.5" gradientUnits="userSpaceOnUse">
<stop stop-color="#0FA81F"/>
<stop offset="0.9999" stop-color="#10DCE8"/>
<stop offset="1" stop-color="#09C9E3"/>
</linearGradient>
</defs>
</svg>
