<svg width="24" height="30" viewBox="0 0 24 30" fill="none" xmlns="http://www.w3.org/2000/svg">
<path opacity="0.15" d="M0.89502 7.75841V24.7584C0.89502 27.1058 2.7976 29.0084 5.14502 29.0084H19.3117C21.6591 29.0084 23.5617 27.1058 23.5617 24.7584V7.75841C23.5617 5.41099 21.6591 3.50841 19.3117 3.50841H5.14502C2.7976 3.50841 0.89502 5.41099 0.89502 7.75841Z" fill="#A0A3BD"/>
<path d="M17.895 12.0078H6.56169C5.77827 12.0078 5.14502 11.3731 5.14502 10.5911C5.14502 9.80909 5.77827 9.17442 6.56169 9.17442H17.895C18.6784 9.17442 19.3117 9.80909 19.3117 10.5911C19.3117 11.3731 18.6784 12.0078 17.895 12.0078Z" fill="#A0A3BD"/>
<path d="M12.2284 17.6747H6.56169C5.77827 17.6747 5.14502 17.0401 5.14502 16.2581C5.14502 15.4761 5.77827 14.8414 6.56169 14.8414H12.2284C13.0118 14.8414 13.645 15.4761 13.645 16.2581C13.645 17.0401 13.0118 17.6747 12.2284 17.6747Z" fill="#A0A3BD"/>
<path d="M17.895 23.3417H6.56169C5.77827 23.3417 5.14502 22.7071 5.14502 21.9251C5.14502 21.1431 5.77827 20.5084 6.56169 20.5084H17.895C18.6784 20.5084 19.3117 21.1431 19.3117 21.9251C19.3117 22.7071 18.6784 23.3417 17.895 23.3417Z" fill="#A0A3BD"/>
<path d="M9.39502 3.50776C9.39502 3.28959 9.39502 3.07284 9.39502 2.79942C9.39502 1.62642 8.44302 0.674423 7.27002 0.674423C6.09702 0.674423 5.14502 1.62642 5.14502 2.79942C5.14502 3.07284 5.14502 3.28959 5.14502 3.50776H9.39502Z" fill="#A0A3BD"/>
<path d="M19.3115 3.50776C19.3115 3.28959 19.3115 3.07284 19.3115 2.79942C19.3115 1.62642 18.3595 0.674423 17.1865 0.674423C16.0135 0.674423 15.0615 1.62642 15.0615 2.79942C15.0615 3.07284 15.0615 3.28959 15.0615 3.50776H19.3115Z" fill="#A0A3BD"/>
</svg>
