<svg width="35" height="35" viewBox="0 0 35 35" fill="none" xmlns="http://www.w3.org/2000/svg">
<path d="M30.7563 10.1792C29.5167 8.80832 27.4458 8.1229 24.4417 8.1229H24.0917V8.06457C24.0917 5.61457 24.0917 2.58124 18.6083 2.58124H16.3917C10.9083 2.58124 10.9083 5.62915 10.9083 8.06457V8.13749H10.5583C7.5396 8.13749 5.48335 8.8229 4.24376 10.1937C2.80001 11.7979 2.84376 13.9562 2.9896 15.4292L3.00418 15.5312L3.15001 17.0625C3.1646 17.0771 3.19376 17.1062 3.22293 17.1208C3.70418 17.4417 4.20001 17.7625 4.72501 18.0542C4.92918 18.1854 5.14793 18.3021 5.36668 18.4187C7.86043 19.7896 10.6021 20.7083 13.3875 21.1604C13.5188 22.5312 14.1167 24.1354 17.3104 24.1354C20.5042 24.1354 21.1313 22.5458 21.2333 21.1312C24.2083 20.65 27.0813 19.6146 29.6771 18.0979C29.7646 18.0542 29.8229 18.0104 29.8958 17.9667C30.5667 17.5875 31.1938 17.1792 31.8063 16.7271C31.8354 16.7125 31.8646 16.6833 31.8792 16.6542L31.9375 16.1292L32.0104 15.4437C32.025 15.3562 32.025 15.2833 32.0396 15.1812C32.1563 13.7083 32.1271 11.6958 30.7563 10.1792ZM19.0896 20.1687C19.0896 21.7146 19.0896 21.9479 17.2958 21.9479C15.5021 21.9479 15.5021 21.6708 15.5021 20.1833V18.3458H19.0896V20.1687ZM12.9938 8.1229V8.06457C12.9938 5.5854 12.9938 4.66665 16.3917 4.66665H18.6083C22.0063 4.66665 22.0063 5.59999 22.0063 8.06457V8.13749H12.9938V8.1229Z" fill="white"/>
<path opacity="0.4" d="M29.8959 17.9375C29.8229 17.9813 29.75 18.025 29.6771 18.0688C27.0813 19.5854 24.2084 20.6063 21.2334 21.1021C21.1167 22.5021 20.5042 24.1063 17.3104 24.1063C14.1167 24.1063 13.5042 22.5167 13.3875 21.1313C10.6021 20.6938 7.86044 19.775 5.36669 18.3896C5.14794 18.2729 4.92919 18.1563 4.72502 18.025C4.20002 17.7333 3.70419 17.4125 3.22294 17.0917C3.19377 17.0771 3.16461 17.0479 3.15002 17.0333L4.03961 26.5271C4.34586 29.4292 5.54169 32.4188 11.9584 32.4188H23.0709C29.4875 32.4188 30.6834 29.4292 30.9896 26.5125L31.9084 16.625C31.8938 16.6542 31.8646 16.6833 31.8354 16.6979C31.2084 17.15 30.5667 17.5729 29.8959 17.9375Z" fill="white"/>
</svg>
