<svg width="21" height="25" viewBox="0 0 21 25" fill="none" xmlns="http://www.w3.org/2000/svg">
<path opacity="0.35" d="M3.37296 21.0711V1.2474C3.37296 0.563487 3.92802 0.00842285 4.61194 0.00842285H17.0018C19.0547 0.00842285 20.7187 1.67238 20.7187 3.72537V18.5931C20.7187 20.6461 19.0547 22.3101 17.0018 22.3101H4.61194C3.92802 22.3101 3.37296 21.755 3.37296 21.0711Z" fill="#A0A3BD"/>
<path d="M13.9043 6.20276C13.426 6.20276 10.6656 6.20276 10.1873 6.20276C9.16145 6.20276 8.32886 7.03535 8.32886 8.06123C8.32886 9.08711 9.16145 9.9197 10.1873 9.9197C10.6656 9.9197 13.426 9.9197 13.9043 9.9197C14.9302 9.9197 15.7627 9.08711 15.7627 8.06123C15.7627 7.03535 14.9302 6.20276 13.9043 6.20276Z" fill="#A0A3BD"/>
<path d="M4.61196 22.3097C3.92805 22.3097 3.37298 21.7546 3.37298 21.0707V2.48596C2.00391 2.48596 0.89502 3.59485 0.89502 4.96392V21.0707C0.89502 23.1237 2.55897 24.7876 4.61196 24.7876H14.5238C15.8929 24.7876 17.0018 23.6787 17.0018 22.3097H4.61196Z" fill="#A0A3BD"/>
</svg>
