<svg width="35" height="35" viewBox="0 0 35 35" fill="none" xmlns="http://www.w3.org/2000/svg">
<path d="M31.3542 15.8958V5.97916C31.3542 3.79166 30.4209 2.91666 28.1021 2.91666H22.2105C19.8917 2.91666 18.9584 3.79166 18.9584 5.97916V15.8958C18.9584 18.0833 19.8917 18.9583 22.2105 18.9583H28.1021C30.4209 18.9583 31.3542 18.0833 31.3542 15.8958Z" fill="#00FBFF"/>
<path d="M16.0417 19.1042V29.0208C16.0417 31.2083 15.1084 32.0833 12.7896 32.0833H6.89796C4.57921 32.0833 3.64587 31.2083 3.64587 29.0208V19.1042C3.64587 16.9167 4.57921 16.0417 6.89796 16.0417H12.7896C15.1084 16.0417 16.0417 16.9167 16.0417 19.1042Z" fill="#00FBFF"/>
<path opacity="0.4" d="M31.3542 29.0208V24.9375C31.3542 22.75 30.4209 21.875 28.1021 21.875H22.2105C19.8917 21.875 18.9584 22.75 18.9584 24.9375V29.0208C18.9584 31.2083 19.8917 32.0833 22.2105 32.0833H28.1021C30.4209 32.0833 31.3542 31.2083 31.3542 29.0208Z" fill="#00FBFF"/>
<path opacity="0.4" d="M16.0417 10.0625V5.97916C16.0417 3.79166 15.1084 2.91666 12.7896 2.91666H6.89796C4.57921 2.91666 3.64587 3.79166 3.64587 5.97916V10.0625C3.64587 12.25 4.57921 13.125 6.89796 13.125H12.7896C15.1084 13.125 16.0417 12.25 16.0417 10.0625Z" fill="#00FBFF"/>
</svg>
