<svg width="41" height="35" viewBox="0 0 41 35" fill="none" xmlns="http://www.w3.org/2000/svg">
<path opacity="0.4" d="M15.375 2.91669C10.8992 2.91669 7.26044 6.02294 7.26044 9.84377C7.26044 13.5917 10.6942 16.625 15.17 16.7563C15.3067 16.7417 15.4434 16.7417 15.5459 16.7563C15.58 16.7563 15.5971 16.7563 15.6313 16.7563C15.6484 16.7563 15.6484 16.7563 15.6654 16.7563C20.0388 16.625 23.4725 13.5917 23.4896 9.84377C23.4896 6.02294 19.8509 2.91669 15.375 2.91669Z" fill="white"/>
<path d="M24.0533 20.6354C19.2871 17.9229 11.5142 17.9229 6.71374 20.6354C4.54416 21.875 3.34833 23.5521 3.34833 25.3458C3.34833 27.1396 4.54416 28.8021 6.69666 30.0271C9.08833 31.3979 12.2317 32.0833 15.375 32.0833C18.5183 32.0833 21.6617 31.3979 24.0533 30.0271C26.2058 28.7875 27.4017 27.125 27.4017 25.3166C27.3846 23.5229 26.2058 21.8604 24.0533 20.6354Z" fill="white"/>
<path opacity="0.4" d="M34.1496 10.7041C34.4229 13.5333 32.0654 16.0125 28.8025 16.3479C28.7854 16.3479 28.7854 16.3479 28.7684 16.3479H28.7171C28.6146 16.3479 28.5121 16.3479 28.4267 16.3771C26.7696 16.45 25.2492 15.9979 24.1046 15.1666C25.8642 13.825 26.8721 11.8125 26.6671 9.62498C26.5475 8.44373 26.0692 7.36457 25.3517 6.44582C26.0009 6.16873 26.7525 5.99373 27.5213 5.9354C30.8696 5.68748 33.8592 7.81665 34.1496 10.7041Z" fill="white"/>
<path d="M37.5663 24.1937C37.4296 25.6083 36.3704 26.8333 34.5938 27.6646C32.8854 28.4667 30.7329 28.8458 28.5975 28.8021C29.8275 27.8542 30.545 26.6729 30.6817 25.4187C30.8525 23.6104 29.8446 21.875 27.8288 20.4896C26.6842 19.7167 25.3517 19.1042 23.8996 18.6521C27.675 17.7187 32.4242 18.3458 35.3454 20.3583C36.9171 21.4375 37.72 22.7937 37.5663 24.1937Z" fill="white"/>
</svg>
