<svg width="23" height="22" viewBox="0 0 23 22" fill="none" xmlns="http://www.w3.org/2000/svg">
<path d="M22.625 1.375C22.625 0.615608 22.0094 0 21.25 0H11.625C10.8656 0 10.25 0.615608 10.25 1.375V2.33773C10.25 2.82396 10.4432 3.29028 10.787 3.63409L16.8565 9.70364C17.5725 10.4196 17.5725 11.5804 16.8565 12.2964L10.787 18.3659C10.4432 18.7097 10.25 19.176 10.25 19.6623V20.625C10.25 21.3844 10.8656 22 11.625 22H21.25C22.0094 22 22.625 21.3844 22.625 20.625V1.375Z" fill="white"/>
<path d="M9.68046 9.625L7.90273 7.84727C7.36576 7.3103 7.36576 6.4397 7.90273 5.90273C8.4397 5.36576 9.3103 5.36576 9.84727 5.90273L13.9723 10.0277C14.1041 10.1596 14.2036 10.3115 14.2707 10.4737C14.3379 10.6358 14.375 10.8136 14.375 11C14.375 11.1864 14.3379 11.3642 14.2707 11.5263C14.2036 11.6885 14.1041 11.8404 13.9723 11.9723L9.84727 16.0973C9.3103 16.6342 8.4397 16.6342 7.90273 16.0973C7.36576 15.5603 7.36576 14.6897 7.90273 14.1527L9.68046 12.375H2C1.24061 12.375 0.625 11.7594 0.625 11C0.625 10.2406 1.24061 9.625 2 9.625H9.68046Z" fill="white"/>
</svg>
