<svg width="21" height="21" viewBox="0 0 21 21" fill="none" xmlns="http://www.w3.org/2000/svg">
<path opacity="0.35" d="M20.6915 5.7859C20.5195 5.0679 19.6125 4.8269 19.0905 5.3489C17.8355 6.6039 16.4375 8.0019 16.1625 8.2769C15.1265 9.3129 13.4055 9.2499 12.4535 8.0849C11.6255 7.0729 11.8025 5.5649 12.7275 4.6399L15.5535 1.8139C16.0755 1.2919 15.8355 0.3839 15.1175 0.2119C14.0715 -0.0391004 12.9405 -0.0691004 11.7685 0.1849C8.85752 0.8169 6.53752 3.2009 6.01652 6.1339C5.78252 7.4519 5.89552 8.7209 6.27552 9.8679L1.88352 14.2469C0.56552 15.5649 0.56552 17.7019 1.88352 19.0199C3.20152 20.3379 5.33852 20.3379 6.65652 19.0199L11.0545 14.6349C12.1965 15.0099 13.4585 15.1189 14.7685 14.8859C17.7025 14.3649 20.0865 12.0459 20.7175 9.1339C20.9725 7.9619 20.9415 6.8319 20.6915 5.7859Z" fill="#A0A3BD"/>
<path d="M4.39453 18.0084C5.22296 18.0084 5.89453 17.3368 5.89453 16.5084C5.89453 15.68 5.22296 15.0084 4.39453 15.0084C3.5661 15.0084 2.89453 15.68 2.89453 16.5084C2.89453 17.3368 3.5661 18.0084 4.39453 18.0084Z" fill="#A0A3BD"/>
</svg>
